<?xml version="1.0" encoding="UTF-8"?><svg id="Layer_2" xmlns="http://www.w3.org/2000/svg" viewBox="0 0 619.79 133.29"><defs><style>.cls-1{fill:none;}.cls-2{fill:#376ac4;}.cls-3{fill:#5493f7;}.cls-4{fill:#2845ae;}</style></defs><g id="Layer_16"><g><path class="cls-4" d="M182.37,55.5c-5.28-8.11-14.56-10.91-19.88-7.35-1.33,.89-5.71,3.79-8.99,6.09-.05,.04-.09,.08-.14,.11-.04,.03-.08,.06-.11,.09-.05,.04-.09,.08-.14,.13-4.38,3.79-4.47,12.44,.06,20.28,4.9,8.49,13.34,12.79,18.85,9.6,.02-.01,.04-.03,.06-.04,0,0,0,0,0,0,4.96-2.94,9.33-6,11.14-7.38,5.1-3.87,4.49-13.31-.86-21.53Z"/><ellipse class="cls-3" cx="163.15" cy="69.09" rx="6.46" ry="10.54" transform="translate(-12.69 90.83) rotate(-30)"/><ellipse class="cls-4" cx="86.03" cy="26.44" rx="11.52" ry="17.74" transform="translate(-1.69 46.56) rotate(-30)"/><path class="cls-4" d="M105.25,12.85c5.35,8.22,5.96,17.66,.86,21.53-1.81,1.37-6.18,4.43-11.14,7.38-4.17,2.47-3.86-10.21-7.39-16.32-3.68-6.37-15.28-10.99-11.21-13.85,3.28-2.3,7.66-5.2,8.99-6.09,5.32-3.56,14.6-.76,19.88,7.35Z"/><ellipse class="cls-3" cx="83.04" cy="25.04" rx="6.46" ry="10.54" transform="translate(-1.4 44.87) rotate(-30)"/><polygon class="cls-3" points="82.85 27.9 156.48 71.06 163.18 66.98 89.55 23.82 82.85 27.9"/><polygon class="cls-2" points="93.7 34.26 156.48 71.06 156.48 74.71 88.16 34.89 93.7 34.26"/><polygon class="cls-2" points="156.48 74.71 156.48 71.06 163.18 66.98 163.18 70.52 156.48 74.71"/><polygon class="cls-4" points="151.93 73.25 107.43 102.63 34.56 60.27 34.56 29.92 79.06 30.89 151.93 42.9 151.93 73.25"/><polygon class="cls-3" points="151.93 42.9 107.43 72.28 34.56 29.92 79.06 .54 151.93 42.9"/><ellipse class="cls-3" cx="113.98" cy="75.84" rx="3.87" ry="2.37" transform="translate(-8.68 136.63) rotate(-60)"/><ellipse class="cls-3" cx="122.32" cy="70.42" rx="3.87" ry="2.37" transform="translate(.17 141.14) rotate(-60)"/><rect class="cls-4" x="139.66" y="0" width="4.22" height="43.94" rx="2.11" ry="2.11"/><polygon class="cls-3" points="24.11 56.9 105.93 104.88 112.63 100.81 30.81 52.82 24.11 56.9"/><polygon class="cls-2" points="27.14 58.69 105.93 104.88 105.93 108.53 27.14 62.34 27.14 58.69"/><polygon class="cls-2" points="105.93 108.53 105.93 104.88 112.63 100.81 112.63 104.34 105.93 108.53"/><path class="cls-4" d="M32.57,60.9c-5.28-8.11-14.56-10.91-19.88-7.35-1.33,.89-5.71,3.79-8.99,6.09-.05,.04-.09,.08-.14,.11-.04,.03-.08,.06-.11,.09-.05,.04-.09,.09-.14,.13-4.38,3.79-4.47,12.44,.06,20.28,4.9,8.49,13.34,12.79,18.85,9.6,.02-.01,.04-.03,.06-.04,0,0,0,0,0,0,4.96-2.94,9.33-6,11.14-7.38,5.1-3.87,4.49-13.31-.86-21.53Z"/><ellipse class="cls-3" cx="13.35" cy="74.49" rx="6.46" ry="10.54" transform="translate(-35.46 16.65) rotate(-30)"/><path class="cls-4" d="M109.22,103.29c-5.28-8.11-14.56-10.91-19.88-7.35-1.33,.89-5.71,3.79-8.99,6.09-.05,.04-.09,.08-.14,.11-.04,.03-.08,.06-.12,.09-.05,.04-.09,.08-.14,.13-4.38,3.79-4.47,12.44,.06,20.28,4.9,8.49,13.34,12.79,18.85,9.6,.02-.01,.04-.03,.06-.04,0,0,0,0,0,0,4.96-2.94,9.33-6,11.14-7.38,5.1-3.87,4.49-13.31-.86-21.53Z"/><ellipse class="cls-3" cx="90" cy="116.88" rx="6.46" ry="10.54" transform="translate(-46.38 60.66) rotate(-30)"/><polygon class="cls-1" points="70.9 30.64 73.85 32.37 85.84 24.31 82.89 22.58 70.9 30.64"/><polygon class="cls-1" points="73.07 16.82 61.07 24.88 63.94 26.56 75.94 18.51 73.07 16.82"/><g><polygon class="cls-4" points="72.72 16.71 65.7 12.59 53.58 20.73 60.6 24.85 72.72 16.71"/><polygon class="cls-4" points="41.38 29.36 48.39 33.39 59.34 26.04 52.38 21.97 41.38 29.36"/><polygon class="cls-4" points="85.83 8.25 78.82 4.21 67.85 11.58 74.8 15.65 85.83 8.25"/><polygon class="cls-4" points="75.6 18.1 63.33 26.34 70.44 30.51 82.7 22.27 75.6 18.1"/><polygon class="cls-4" points="50.36 35.05 57.53 39.18 68.67 31.7 61.56 27.53 50.36 35.05"/><polygon class="cls-4" points="95.8 13.47 88.63 9.35 77.37 16.91 84.48 21.08 95.8 13.47"/><polygon class="cls-4" points="60.49 40.98 67.66 45.11 78.79 37.64 71.68 33.47 60.49 40.98"/><polygon class="cls-4" points="105.93 19.4 98.76 15.28 87.49 22.85 94.6 27.01 105.93 19.4"/><polygon class="cls-4" points="85.72 24.04 73.46 32.27 80.56 36.44 92.83 28.21 85.72 24.04"/></g><polygon class="cls-3" points="92.77 45.65 94.6 44.54 80.8 36.45 79.06 37.61 92.77 45.65"/></g><g><path class="cls-4" d="M247.33,37.37h-25.99V20.05h70.76v17.32h-25.98V105.44h-18.79V37.37Z"/><path class="cls-4" d="M286.12,73.11v-.24c0-18.67,13.3-34.04,32.33-34.04,21.84,0,31.84,16.96,31.84,35.5,0,1.46-.12,3.17-.24,4.88h-45.5c1.83,8.42,7.69,12.81,15.98,12.81,6.22,0,10.74-1.95,15.86-6.71l10.61,9.39c-6.1,7.56-14.88,12.2-26.72,12.2-19.64,0-34.16-13.79-34.16-33.79Zm46.11-5.49c-1.1-8.29-5.98-13.91-13.79-13.91s-12.69,5.49-14.15,13.91h27.94Z"/><path class="cls-4" d="M361.64,40.05h18.54v13.18c3.78-9.03,9.88-14.88,20.86-14.4v19.4h-.98c-12.32,0-19.88,7.44-19.88,23.06v24.15h-18.54V40.05Z"/><path class="cls-4" d="M410.2,40.05h18.54v13.18c3.78-9.03,9.88-14.88,20.86-14.4v19.4h-.98c-12.32,0-19.88,7.44-19.88,23.06v24.15h-18.54V40.05Z"/><path class="cls-4" d="M451.8,86.66v-.24c0-14.27,10.86-20.86,26.35-20.86,6.59,0,11.35,1.1,15.98,2.68v-1.1c0-7.69-4.76-11.96-14.03-11.96-7.08,0-12.08,1.34-18.05,3.54l-4.64-14.15c7.2-3.17,14.27-5.25,25.37-5.25,10.13,0,17.45,2.68,22.08,7.32,4.88,4.88,7.08,12.08,7.08,20.86v37.94h-17.93v-7.08c-4.51,5-10.74,8.29-19.76,8.29-12.32,0-22.45-7.08-22.45-20.01Zm42.58-4.27v-3.29c-3.17-1.46-7.32-2.44-11.83-2.44-7.93,0-12.81,3.17-12.81,9.03v.24c0,5,4.15,7.93,10.12,7.93,8.66,0,14.52-4.76,14.52-11.47Z"/><path class="cls-4" d="M525.85,16.39h19.52v16.47h-19.52V16.39Zm.49,23.67h18.54V105.44h-18.54V40.05Z"/><path class="cls-4" d="M559.89,40.05h18.54v9.27c4.27-5.49,9.76-10.49,19.15-10.49,14.03,0,22.2,9.27,22.2,24.28v42.33h-18.54v-36.48c0-8.78-4.15-13.3-11.22-13.3s-11.59,4.51-11.59,13.3v36.48h-18.54V40.05Z"/></g></g></svg>